<?xml version="1.0" standalone="no"?>
<!DOCTYPE svg PUBLIC "-//W3C//DTD SVG 20010904//EN"
 "http://www.w3.org/TR/2001/REC-SVG-20010904/DTD/svg10.dtd">
<svg version="1.0" xmlns="http://www.w3.org/2000/svg"
 width="700.000000pt" height="700.000000pt" viewBox="0 0 700.000000 700.000000"
 preserveAspectRatio="xMidYMid meet">
<metadata>
Created by potrace 1.11, written by Peter Selinger 2001-2013
</metadata>
<g transform="translate(0.000000,700.000000) scale(0.100000,-0.100000)"
fill="#000000" stroke="none">
<path d="M1025 5150 l-90 -5 -1 -37 -1 -38 2523 0 c2397 0 2524 1 2525 18 0 9
2 27 3 40 2 14 -3 22 -13 22 -133 4 -4882 4 -4946 0z"/>
<path d="M1031 4236 l0 -386 22 -1 c54 -2 335 3 357 6 102 14 175 44 233 95
155 136 154 426 -1 567 -84 77 -176 99 -429 102 l-182 2 0 -385z m418 199 c41
-23 56 -39 77 -81 47 -95 32 -222 -32 -287 -46 -45 -109 -67 -195 -67 l-68 0
0 236 0 237 83 -5 c66 -4 94 -11 135 -33z"/>
<path d="M1990 4308 c-159 -431 -169 -458 -161 -458 71 -5 184 -1 190 6 4 5
18 37 31 72 l22 62 147 0 c80 0 151 -4 157 -8 6 -4 19 -32 29 -62 9 -30 21
-59 25 -63 7 -8 188 -13 195 -6 1 2 -61 176 -139 386 l-141 383 -120 0 -120 0
-115 -312z m284 -14 c24 -71 47 -137 51 -146 7 -16 -2 -18 -92 -18 -55 0 -102
3 -105 6 -3 3 9 47 27 97 17 51 40 116 49 145 10 29 20 51 22 49 2 -2 24 -62
48 -133z"/>
<path d="M2454 4545 l-1 -75 128 0 129 0 0 -310 c0 -351 -11 -311 85 -311 25
0 61 0 80 0 l35 1 0 310 0 310 129 0 128 0 1 75 1 75 -357 0 -357 0 -1 -75z"/>
<path d="M3310 4233 l0 -388 243 2 c133 1 257 2 275 2 l32 1 0 75 0 74 -162 0
c-90 0 -169 0 -176 0 -10 1 -12 23 -10 88 l3 88 150 1 c83 1 154 2 158 3 4 0
7 34 5 74 l-3 72 -155 0 -155 1 -3 72 -3 72 171 0 170 0 0 75 0 75 -270 0
-270 0 0 -387z"/>
<path d="M4352 4233 l3 -387 85 2 c47 0 88 1 92 1 4 1 9 125 10 277 l3 277 84
-199 c47 -109 88 -202 93 -205 5 -3 34 -5 66 -4 l57 1 84 197 c46 108 87 197
90 197 3 0 5 -121 4 -270 l-2 -270 35 -1 c19 -1 43 -1 54 -1 11 0 38 0 60 1
l40 1 0 385 0 386 -127 -3 -127 -3 -77 -180 c-43 -99 -80 -188 -83 -199 -2
-10 -9 -15 -14 -12 -6 3 -47 94 -93 201 l-84 195 -127 0 -128 0 2 -387z"/>
<path d="M5306 4593 c9 -16 75 -116 146 -224 l128 -196 0 -161 0 -162 25 -1
c14 0 45 0 70 0 25 0 59 0 75 0 l30 1 0 161 0 161 145 219 c80 121 145 222
145 224 0 3 -48 5 -107 5 l-108 0 -85 -135 c-47 -74 -87 -135 -90 -135 -3 1
-43 62 -90 135 l-85 135 -109 0 -108 0 18 -27z"/>
<path d="M1460 3568 c-158 -24 -276 -151 -297 -318 -25 -195 52 -368 193 -435
130 -61 326 -49 440 27 109 74 154 178 150 348 -4 136 -28 203 -100 276 -93
93 -223 127 -386 102z m181 -158 c70 -36 102 -113 102 -247 0 -102 -32 -179
-91 -215 -65 -40 -176 -29 -224 22 -85 91 -82 331 4 413 53 51 139 62 209 27z"/>
<path d="M449 3550 c0 -8 -1 -183 -2 -388 l-2 -373 100 3 100 3 0 137 c1 75 4
140 8 144 10 10 78 6 109 -7 33 -14 63 -57 123 -181 l48 -98 103 0 c57 0 104
2 104 5 0 3 -31 67 -69 143 -69 138 -90 168 -137 199 l-26 16 29 15 c73 37
104 89 106 176 3 115 -52 182 -169 206 -30 6 -137 12 -239 13 -158 2 -185 0
-186 -13z m344 -143 c55 -19 72 -117 28 -161 -18 -18 -33 -21 -98 -21 l-77 0
1 80 c1 44 2 87 2 96 1 14 12 17 59 17 31 -1 70 -5 85 -11z"/>
<path d="M2077 3562 c-9 -2 -17 -11 -18 -20 -1 -21 -1 -698 0 -730 1 -22 3
-23 94 -20 l92 3 2 260 c0 143 2 267 2 275 1 8 40 -76 87 -187 95 -222 87
-213 178 -204 36 3 40 7 63 60 27 61 41 95 54 126 12 30 67 156 83 190 13 27
15 0 15 -247 l1 -278 93 0 94 0 0 385 c0 347 -1 385 -16 386 -19 1 -211 1
-227 0 -6 -1 -21 -25 -34 -53 -26 -60 -22 -51 -90 -213 -28 -66 -55 -124 -59
-128 -4 -4 -38 66 -76 155 -38 90 -72 167 -77 173 -4 5 -8 17 -8 26 0 33 -28
42 -134 43 -56 1 -110 0 -119 -2z"/>
<path d="M3314 3562 c-20 -3 -44 -38 -44 -63 0 -6 -6 -25 -14 -42 -8 -18 -51
-133 -96 -257 -46 -124 -98 -265 -116 -314 -19 -48 -34 -90 -34 -92 0 -2 44
-4 99 -4 111 0 94 -12 134 95 l15 40 155 3 154 2 11 -27 c5 -16 17 -46 25 -68
l15 -40 100 -3 101 -3 -29 78 c-128 350 -253 680 -260 687 -8 8 -171 14 -216
8z m152 -333 c25 -74 46 -138 47 -144 1 -6 -38 -10 -101 -10 -88 -1 -103 1
-99 15 3 8 24 69 47 135 22 66 43 126 46 134 2 8 7 12 9 9 3 -2 26 -65 51
-139z"/>
<path d="M3930 3178 l0 -388 95 0 95 0 2 260 3 259 38 -72 c21 -40 72 -135
112 -212 41 -77 85 -160 98 -185 l24 -45 111 -3 c62 -1 112 1 113 5 1 11 1
723 0 748 -1 18 -7 20 -83 18 -46 0 -88 -2 -94 -2 -7 -1 -10 -78 -9 -248 0
-137 -1 -252 -3 -257 -5 -9 -26 28 -140 244 -41 80 -90 172 -108 204 l-32 59
-111 1 -111 1 0 -387z"/>
<path d="M4800 3562 c-6 -2 -10 -142 -10 -389 l0 -386 208 6 c171 4 218 8 270
25 170 55 265 207 247 397 -18 206 -142 321 -366 341 -73 6 -334 11 -349 6z
m373 -168 c87 -29 136 -105 137 -209 0 -159 -71 -233 -237 -243 l-83 -5 0 237
0 236 68 0 c38 0 89 -7 115 -16z"/>
<path d="M5639 3560 c-8 -5 -12 -260 -10 -632 l1 -138 99 0 100 0 0 385 c1
359 0 385 -17 386 -89 4 -166 3 -173 -1z"/>
<path d="M6090 3562 c-6 -2 -10 -141 -10 -388 l0 -384 275 0 275 0 0 75 0 75
-175 0 -175 0 0 89 0 88 158 0 157 -1 0 75 0 74 -157 3 -158 3 0 69 0 70 168
2 167 3 2 73 c1 49 -2 72 -10 73 -42 3 -509 3 -517 1z"/>
<path d="M936 2230 c-2 -5 -1 -41 2 -67 2 -10 513 -13 2521 -13 l2519 0 4 40
c2 22 1 41 -2 41 -17 4 -5042 3 -5044 -1z"/>
</g>
</svg>
