<?xml version="1.0" encoding="UTF-8" standalone="no"?>
<svg width="729px" height="80px" viewBox="0 0 729 80" version="1.1" xmlns="http://www.w3.org/2000/svg" xmlns:xlink="http://www.w3.org/1999/xlink">
    <defs/>
    <g id="Page-1" stroke="none" stroke-width="1" fill="none" fill-rule="evenodd">
        <g id="logo_nH_it_cmjn-colors" transform="translate(0.000000, -116.000000)">
            <path d="M7.416,129.603 C7.416,128.532 7.424,127.493 7.441,126.489 C7.456,125.483 7.546,124.296 7.708,122.922 L0.643,123.323 L0.643,119.003 C2.819,119.003 4.63,118.928 6.076,118.777 C7.521,118.626 8.699,118.418 9.609,118.149 C10.518,117.882 11.233,117.589 11.753,117.27 C12.272,116.952 12.728,116.609 13.117,116.24 L15.992,116.24 L16.09,183.005 C16.09,184.378 16.057,185.592 15.992,186.647 C15.927,187.702 15.798,188.815 15.603,189.987 L21.889,189.686 L21.889,193.906 L1.52,193.906 L1.52,190.841 C3.047,190.841 4.208,190.532 5.004,189.913 C5.799,189.293 6.376,188.43 6.734,187.325 C7.091,186.219 7.294,184.897 7.343,183.356 C7.392,181.816 7.416,180.125 7.416,178.282 L7.416,129.603" id="Fill-1" fill="#C62533"/>
            <path d="M56.683,168.737 C55.155,168.805 53.571,168.947 51.932,169.165 C50.291,169.382 48.683,169.717 47.108,170.169 C45.531,170.622 44.045,171.199 42.649,171.903 C41.252,172.606 40.033,173.443 38.994,174.415 C37.954,175.385 37.142,176.507 36.557,177.78 C35.973,179.053 35.712,180.493 35.778,182.1 C35.81,183.374 36.046,184.487 36.484,185.441 C36.923,186.395 37.491,187.182 38.19,187.802 C38.888,188.423 39.692,188.891 40.602,189.209 C41.511,189.528 42.486,189.686 43.526,189.686 C44.858,189.686 46.109,189.552 47.278,189.284 C48.447,189.016 49.56,188.624 50.616,188.104 C51.671,187.585 52.694,186.957 53.686,186.219 C54.676,185.483 55.675,184.63 56.683,183.658 L56.683,168.737 Z M29.297,153.165 C29.297,151.456 29.784,149.848 30.758,148.342 C31.733,146.835 33.098,145.52 34.852,144.397 C36.606,143.276 38.693,142.397 41.113,141.76 C43.533,141.125 46.173,140.805 49.032,140.805 C54.619,140.805 58.737,142.331 61.385,145.378 C64.032,148.425 65.34,153.264 65.308,159.895 L65.211,183.005 C65.211,184.077 65.186,185.157 65.137,186.245 C65.089,187.334 64.983,188.581 64.82,189.987 L71.886,189.586 L71.886,193.906 L57.609,193.906 C57.414,192.734 57.267,191.713 57.17,190.841 C57.072,189.971 56.991,189.05 56.926,188.079 C54.685,190.389 52.24,192.215 49.592,193.554 C46.944,194.893 44.142,195.563 41.187,195.563 C38.685,195.563 36.5,195.254 34.632,194.634 C32.764,194.014 31.213,193.153 29.979,192.048 C28.744,190.942 27.818,189.644 27.201,188.154 C26.584,186.665 26.276,185.064 26.276,183.356 C26.276,181.247 26.722,179.321 27.615,177.579 C28.508,175.839 29.711,174.289 31.221,172.932 C32.732,171.576 34.494,170.404 36.508,169.416 C38.523,168.428 40.658,167.616 42.917,166.979 C45.174,166.343 47.481,165.882 49.836,165.598 C52.191,165.313 54.49,165.188 56.732,165.221 L56.732,158.791 C56.732,157.016 56.634,155.292 56.439,153.616 C56.244,151.942 55.813,150.419 55.148,149.045 C54.482,147.672 53.442,146.583 52.029,145.78 C50.616,144.975 48.984,144.573 47.131,144.573 C46.06,144.573 45.036,144.667 44.062,144.85 C43.087,145.034 42.129,145.344 41.187,145.78 C40.244,146.215 39.391,146.784 38.629,147.487 C37.865,148.19 37.239,149.028 36.752,149.999 C37.239,150.569 37.572,151.197 37.751,151.883 C37.929,152.57 38.019,153.231 38.019,153.868 C38.019,154.269 37.938,154.73 37.776,155.249 C37.613,155.768 37.362,156.254 37.02,156.706 C36.679,157.158 36.241,157.526 35.705,157.811 C35.169,158.096 34.445,158.238 33.536,158.238 C32.237,158.238 31.205,157.745 30.442,156.757 C29.678,155.768 29.297,154.571 29.297,153.165 L29.297,153.165 Z" id="Fill-2" fill="#C62533"/>
            <path d="M82.735,154.822 C82.735,153.751 82.751,152.662 82.784,151.556 C82.816,150.452 82.93,149.313 83.124,148.14 L76.059,148.542 L76.059,144.221 C78.235,144.221 80.006,144.147 81.37,143.996 C82.735,143.844 83.831,143.636 84.659,143.368 C85.488,143.1 86.13,142.807 86.585,142.489 C87.039,142.171 87.462,141.828 87.852,141.459 L90.727,141.459 C90.791,142.229 90.864,143.109 90.946,144.096 C91.026,145.085 91.1,146.282 91.165,147.688 C92.237,146.717 93.414,145.813 94.698,144.975 C95.982,144.139 97.321,143.411 98.718,142.79 C100.114,142.171 101.552,141.684 103.03,141.333 C104.509,140.981 105.962,140.805 107.392,140.805 C113.174,140.805 117.398,142.673 120.062,146.407 C122.726,150.141 124.058,155.944 124.058,163.814 L124.058,183.005 C124.058,184.378 124.04,185.592 124.009,186.647 C123.976,187.702 123.862,188.815 123.667,189.987 L129.954,189.686 L129.954,193.906 L109.585,193.906 L109.585,190.841 C111.111,190.841 112.273,190.532 113.069,189.913 C113.864,189.293 114.441,188.43 114.799,187.325 C115.155,186.219 115.359,184.897 115.408,183.356 C115.456,181.816 115.482,180.125 115.482,178.282 L115.482,163.915 C115.415,157.987 114.474,153.524 112.655,150.526 C110.835,147.53 107.944,146.03 103.982,146.03 C102.778,146.03 101.577,146.215 100.375,146.583 C99.173,146.952 98.019,147.429 96.915,148.014 C95.811,148.601 94.771,149.296 93.796,150.1 C92.821,150.903 91.977,151.774 91.263,152.712 C91.294,153.315 91.312,153.96 91.312,154.646 L91.312,156.731 L91.214,183.005 C91.214,184.378 91.197,185.592 91.165,186.647 C91.132,187.702 91.019,188.815 90.823,189.987 L97.11,189.686 L97.11,193.906 L76.741,193.906 L76.741,190.841 C78.268,190.841 79.429,190.532 80.226,189.913 C81.021,189.293 81.59,188.43 81.931,187.325 C82.273,186.219 82.467,184.897 82.516,183.356 C82.565,181.816 82.605,180.125 82.638,178.282 L82.735,154.822" id="Fill-3" fill="#C62533"/>
            <path d="M157.855,144.724 C155.224,144.724 152.974,145.328 151.107,146.536 C149.237,147.743 147.702,149.352 146.501,151.362 C145.299,153.374 144.413,155.688 143.845,158.303 C143.276,160.919 142.993,163.633 142.993,166.45 C142.993,169.635 143.31,172.737 143.943,175.755 C144.576,178.771 145.542,181.446 146.843,183.776 C148.142,186.105 149.774,187.974 151.739,189.382 C153.704,190.791 156.003,191.495 158.635,191.495 C161.267,191.495 163.484,190.883 165.286,189.659 C167.089,188.436 168.552,186.818 169.672,184.805 C170.793,182.796 171.597,180.499 172.084,177.917 C172.571,175.335 172.816,172.686 172.816,169.97 C172.816,166.885 172.538,163.835 171.987,160.817 C171.435,157.799 170.557,155.101 169.356,152.72 C168.153,150.34 166.603,148.413 164.702,146.937 C162.802,145.462 160.519,144.724 157.855,144.724 Z M157.855,140.805 C161.364,140.805 164.645,141.467 167.698,142.79 C170.751,144.114 173.407,145.938 175.665,148.266 C177.923,150.594 179.71,153.357 181.026,156.555 C182.342,159.754 182.999,163.212 182.999,166.928 C182.999,170.915 182.359,174.649 181.075,178.131 C179.791,181.616 178.021,184.645 175.763,187.224 C173.505,189.803 170.841,191.839 167.772,193.329 C164.702,194.818 161.396,195.563 157.855,195.563 C154.347,195.563 151.073,194.919 148.036,193.63 C144.998,192.34 142.351,190.54 140.093,188.229 C137.835,185.919 136.056,183.164 134.757,179.965 C133.458,176.767 132.808,173.258 132.808,169.44 C132.808,165.389 133.449,161.612 134.734,158.112 C136.017,154.613 137.778,151.582 140.021,149.02 C142.262,146.458 144.909,144.448 147.963,142.991 C151.017,141.534 154.314,140.805 157.855,140.805 L157.855,140.805 Z" id="Fill-4" fill="#C62533"/>
            <path d="M207.068,191.495 C208.334,191.495 209.609,191.337 210.892,191.018 C212.175,190.702 213.345,190.209 214.401,189.541 C215.456,188.873 216.318,188.029 216.984,187.01 C217.65,185.991 217.983,184.781 217.983,183.378 C217.983,181.741 217.568,180.346 216.739,179.194 C215.911,178.042 214.823,177.024 213.476,176.139 C212.126,175.253 210.583,174.461 208.846,173.758 C207.108,173.057 205.337,172.339 203.534,171.6 C201.732,170.864 199.969,170.051 198.247,169.165 C196.525,168.278 194.989,167.23 193.642,166.024 C192.294,164.819 191.206,163.379 190.377,161.704 C189.549,160.03 189.135,158.037 189.135,155.726 C189.135,154.286 189.394,152.704 189.914,150.979 C190.434,149.255 191.343,147.637 192.644,146.131 C193.943,144.624 195.689,143.36 197.882,142.338 C200.074,141.317 202.844,140.805 206.191,140.805 C207.099,140.805 208.066,140.874 209.089,141.007 C210.112,141.141 211.16,141.383 212.233,141.735 C213.304,142.087 214.376,142.548 215.448,143.117 C216.521,143.686 217.575,144.389 218.616,145.227 L218.372,141.308 L222.564,141.308 L222.564,159.342 L219.444,159.342 C219.314,157.569 218.982,155.81 218.445,154.068 C217.909,152.327 217.13,150.761 216.107,149.372 C215.083,147.981 213.792,146.851 212.233,145.98 C210.673,145.11 208.821,144.674 206.677,144.674 C205.118,144.674 203.737,144.883 202.535,145.301 C201.333,145.721 200.318,146.29 199.489,147.01 C198.661,147.731 198.035,148.559 197.613,149.497 C197.191,150.434 196.98,151.422 196.98,152.461 C196.98,154.135 197.394,155.575 198.223,156.781 C199.052,157.987 200.148,159.059 201.512,159.997 C202.876,160.934 204.436,161.78 206.191,162.534 C207.944,163.287 209.731,164.057 211.55,164.844 C213.369,165.631 215.156,166.469 216.911,167.356 C218.665,168.244 220.224,169.29 221.589,170.496 C222.952,171.702 224.05,173.108 224.878,174.715 C225.706,176.323 226.12,178.232 226.12,180.442 C226.12,183.022 225.616,185.265 224.61,187.174 C223.603,189.083 222.278,190.658 220.638,191.897 C218.997,193.135 217.146,194.057 215.083,194.659 C213.02,195.262 210.933,195.563 208.821,195.563 C205.443,195.563 202.47,195.103 199.903,194.182 C197.337,193.261 195.226,192.215 193.569,191.043 L193.91,194.609 L189.72,194.609 L189.135,176.926 L192.204,176.926 C192.334,179.063 192.814,181.024 193.642,182.808 C194.47,184.594 195.559,186.13 196.907,187.415 C198.255,188.7 199.798,189.701 201.536,190.419 C203.275,191.135 205.118,191.495 207.068,191.495" id="Fill-5" fill="#C62533"/>
            <path d="M228.677,142.464 C230.432,142.43 232.023,141.936 233.453,140.981 C234.882,140.027 236.141,138.839 237.23,137.415 C238.318,135.992 239.235,134.443 239.983,132.768 C240.73,131.093 241.315,129.52 241.737,128.046 L245.148,128.046 C245.148,130.792 245.14,133.354 245.124,135.732 C245.107,138.11 245.099,140.354 245.099,142.464 L261.911,142.464 L261.911,146.483 L245.099,146.683 C245.067,151.137 245.05,154.94 245.05,158.087 C245.05,161.235 245.042,163.864 245.026,165.974 C245.009,168.085 245.002,169.751 245.002,170.973 C245.002,172.196 244.993,173.126 244.978,173.76 C244.96,174.397 244.953,174.808 244.953,174.992 L244.953,175.319 C244.953,177.663 245.075,179.731 245.318,181.522 C245.562,183.315 245.977,184.822 246.562,186.044 C247.146,187.266 247.917,188.188 248.876,188.807 C249.833,189.426 251.044,189.737 252.507,189.737 C254.228,189.737 255.933,189.201 257.622,188.129 C259.312,187.057 260.806,185.534 262.107,183.557 L264.786,185.818 C263.324,188.096 261.87,189.88 260.425,191.169 C258.98,192.458 257.607,193.428 256.308,194.082 C255.007,194.735 253.798,195.145 252.677,195.313 C251.556,195.479 250.573,195.563 249.729,195.563 C248.722,195.563 247.69,195.479 246.634,195.313 C245.578,195.145 244.539,194.818 243.516,194.333 C242.492,193.848 241.534,193.161 240.641,192.273 C239.747,191.386 238.96,190.239 238.277,188.833 C237.595,187.425 237.06,185.717 236.669,183.708 C236.279,181.698 236.101,179.321 236.133,176.575 L236.328,146.835 L228.677,146.884 L228.677,142.464" id="Fill-6" fill="#C62533"/>
            <path d="M296.188,146.432 C294.921,146.399 293.637,146.641 292.338,147.161 C291.038,147.68 289.763,148.442 288.513,149.446 C287.262,150.452 286.084,151.657 284.98,153.063 C283.875,154.47 282.884,156.028 282.007,157.735 L282.105,183.005 C282.105,184.378 282.088,185.592 282.056,186.647 C282.024,187.702 281.909,188.815 281.715,189.987 L288.001,189.686 L288.001,193.906 L267.534,193.906 L267.534,190.841 C269.062,190.841 270.222,190.532 271.019,189.913 C271.815,189.293 272.391,188.43 272.749,187.325 C273.107,186.219 273.31,184.897 273.359,183.356 C273.406,181.816 273.431,180.125 273.431,178.282 L273.431,154.772 C273.431,153.7 273.446,152.62 273.48,151.532 C273.512,150.444 273.626,149.313 273.821,148.14 L266.755,148.442 L266.755,144.221 L269.825,144.221 C271.254,144.221 272.44,144.147 273.382,143.996 C274.324,143.844 275.112,143.636 275.745,143.368 C276.379,143.1 276.907,142.807 277.329,142.489 C277.751,142.171 278.157,141.828 278.548,141.459 L281.423,141.459 C281.521,142.531 281.609,143.862 281.691,145.453 C281.771,147.044 281.845,149.094 281.909,151.606 C282.657,150.335 283.615,149.053 284.784,147.763 C285.954,146.475 287.271,145.319 288.732,144.297 C290.194,143.276 291.769,142.438 293.458,141.786 C295.148,141.132 296.886,140.805 298.673,140.805 C299.582,140.805 300.468,140.931 301.329,141.182 C302.189,141.434 302.937,141.828 303.569,142.363 C304.204,142.899 304.716,143.569 305.105,144.373 C305.495,145.176 305.691,146.148 305.691,147.286 C305.691,147.756 305.601,148.274 305.422,148.843 C305.243,149.414 304.95,149.949 304.544,150.452 C304.138,150.954 303.626,151.373 303.01,151.708 C302.392,152.042 301.628,152.21 300.72,152.21 C299.972,152.21 299.298,152.042 298.697,151.708 C298.096,151.373 297.593,150.946 297.187,150.426 C296.78,149.907 296.487,149.304 296.31,148.618 C296.13,147.931 296.091,147.204 296.188,146.432" id="Fill-7" fill="#C62533"/>
            <path d="M337.686,168.737 C336.158,168.805 334.574,168.947 332.935,169.165 C331.294,169.382 329.686,169.717 328.11,170.169 C326.534,170.622 325.048,171.199 323.651,171.903 C322.255,172.606 321.036,173.443 319.997,174.415 C318.956,175.385 318.146,176.507 317.56,177.78 C316.976,179.053 316.715,180.493 316.78,182.1 C316.813,183.374 317.048,184.487 317.487,185.441 C317.926,186.395 318.493,187.182 319.193,187.802 C319.891,188.423 320.694,188.891 321.605,189.209 C322.514,189.528 323.488,189.686 324.528,189.686 C325.86,189.686 327.111,189.552 328.28,189.284 C329.45,189.016 330.563,188.624 331.618,188.104 C332.674,187.585 333.697,186.957 334.689,186.219 C335.679,185.483 336.679,184.63 337.686,183.658 L337.686,168.737 Z M310.3,153.165 C310.3,151.456 310.786,149.848 311.761,148.342 C312.735,146.835 314.101,145.52 315.855,144.397 C317.609,143.276 319.696,142.397 322.116,141.76 C324.536,141.125 327.176,140.805 330.035,140.805 C335.622,140.805 339.739,142.331 342.388,145.378 C345.035,148.425 346.343,153.264 346.311,159.895 L346.214,183.005 C346.214,184.077 346.189,185.157 346.14,186.245 C346.091,187.334 345.985,188.581 345.823,189.987 L352.89,189.586 L352.89,193.906 L338.611,193.906 C338.417,192.734 338.271,191.713 338.173,190.841 C338.075,189.971 337.993,189.05 337.929,188.079 C335.688,190.389 333.243,192.215 330.595,193.554 C327.947,194.893 325.146,195.563 322.19,195.563 C319.688,195.563 317.503,195.254 315.636,194.634 C313.767,194.014 312.216,193.153 310.982,192.048 C309.747,190.942 308.821,189.644 308.204,188.154 C307.587,186.665 307.278,185.064 307.278,183.356 C307.278,181.247 307.725,179.321 308.618,177.579 C309.511,175.839 310.714,174.289 312.224,172.932 C313.735,171.576 315.497,170.404 317.511,169.416 C319.526,168.428 321.661,167.616 323.919,166.979 C326.177,166.343 328.484,165.882 330.839,165.598 C333.194,165.313 335.493,165.188 337.734,165.221 L337.734,158.791 C337.734,157.016 337.637,155.292 337.443,153.616 C337.247,151.942 336.816,150.419 336.151,149.045 C335.484,147.672 334.444,146.583 333.032,145.78 C331.618,144.975 329.986,144.573 328.134,144.573 C327.063,144.573 326.039,144.667 325.065,144.85 C324.09,145.034 323.132,145.344 322.19,145.78 C321.247,146.215 320.394,146.784 319.632,147.487 C318.868,148.19 318.242,149.028 317.755,149.999 C318.242,150.569 318.575,151.197 318.754,151.883 C318.933,152.57 319.023,153.231 319.023,153.868 C319.023,154.269 318.941,154.73 318.778,155.249 C318.616,155.768 318.364,156.254 318.023,156.706 C317.683,157.158 317.243,157.526 316.708,157.811 C316.171,158.096 315.448,158.238 314.539,158.238 C313.239,158.238 312.208,157.745 311.444,156.757 C310.681,155.768 310.3,154.571 310.3,153.165 L310.3,153.165 Z" id="Fill-8" fill="#C62533"/>
            <path d="M394.605,175.254 C394.605,172.487 393.628,170.363 391.675,168.882 C389.722,167.401 386.206,165.839 381.128,164.194 C376.05,162.55 372.03,160.93 369.068,159.336 C360.995,154.973 356.958,149.098 356.958,141.709 C356.958,137.868 358.04,134.442 360.206,131.43 C362.37,128.42 365.48,126.067 369.532,124.375 C373.585,122.682 378.134,121.836 383.179,121.836 C388.257,121.836 392.782,122.755 396.753,124.594 C400.725,126.434 403.81,129.03 406.007,132.383 C408.204,135.735 409.302,139.544 409.302,143.808 L394.653,143.808 C394.653,140.553 393.628,138.022 391.577,136.215 C389.526,134.409 386.646,133.505 382.935,133.505 C379.355,133.505 376.571,134.262 374.585,135.776 C372.6,137.29 371.607,139.284 371.607,141.757 C371.607,144.069 372.771,146.005 375.099,147.568 C377.425,149.131 380.852,150.595 385.376,151.962 C393.71,154.469 399.78,157.578 403.589,161.289 C407.398,165 409.302,169.622 409.302,175.156 C409.302,181.308 406.975,186.134 402.319,189.633 C397.665,193.133 391.399,194.882 383.521,194.882 C378.052,194.882 373.071,193.881 368.579,191.88 C364.087,189.878 360.661,187.135 358.302,183.652 C355.941,180.169 354.761,176.132 354.761,171.543 L369.458,171.543 C369.458,179.387 374.146,183.31 383.521,183.31 C387.004,183.31 389.722,182.602 391.675,181.186 C393.628,179.77 394.605,177.793 394.605,175.254" id="Fill-9" fill="#595A59"/>
            <path d="M434.363,128.086 L434.363,141.074 L443.397,141.074 L443.397,151.425 L434.363,151.425 L434.363,177.793 C434.363,179.746 434.737,181.145 435.486,181.992 C436.235,182.839 437.667,183.261 439.783,183.261 C441.346,183.261 442.73,183.147 443.934,182.92 L443.934,193.613 C441.167,194.46 438.318,194.882 435.389,194.882 C425.493,194.882 420.447,189.885 420.252,179.892 L420.252,151.425 L412.537,151.425 L412.537,141.074 L420.252,141.074 L420.252,128.086 L434.363,128.086" id="Fill-10" fill="#595A59"/>
            <path d="M459.664,168.004 C459.664,173.024 460.609,176.864 462.496,179.52 C464.384,182.177 467.086,183.506 470.602,183.506 C474.02,183.506 476.689,182.193 478.609,179.569 C480.53,176.944 481.49,172.747 481.49,166.976 C481.49,162.053 480.53,158.239 478.609,155.533 C476.689,152.828 473.987,151.474 470.504,151.474 C467.054,151.474 464.384,152.819 462.496,155.508 C460.609,158.199 459.664,162.364 459.664,168.004 Z M445.553,167.002 C445.553,161.76 446.562,157.09 448.58,152.988 C450.599,148.886 453.503,145.712 457.296,143.467 C461.088,141.22 465.491,140.097 470.504,140.097 C477.633,140.097 483.451,142.278 487.96,146.64 C492.468,151.003 494.984,156.926 495.504,164.414 L495.602,168.027 C495.602,176.132 493.339,182.635 488.815,187.534 C484.29,192.433 478.219,194.882 470.602,194.882 C462.984,194.882 456.905,192.441 452.364,187.558 C447.823,182.675 445.553,176.035 445.553,167.636 L445.553,167.002 L445.553,167.002 Z" id="Fill-11" fill="#595A59"/>
            <path d="M531.523,154.306 C529.602,154.046 527.909,153.916 526.444,153.916 C521.106,153.916 517.607,155.722 515.946,159.336 L515.946,193.906 L501.835,193.906 L501.835,141.074 L515.165,141.074 L515.556,147.373 C518.388,142.522 522.31,140.097 527.323,140.097 C528.886,140.097 530.351,140.309 531.718,140.732 L531.523,154.306" id="Fill-12" fill="#595A59"/>
            <path d="M535.974,193.906 L550.134,193.906 L550.134,141.074 L535.974,141.074 L535.974,193.906 Z M535.144,127.402 C535.144,125.286 535.852,123.545 537.268,122.177 C538.684,120.81 540.612,120.127 543.054,120.127 C545.462,120.127 547.383,120.81 548.816,122.177 C550.247,123.545 550.964,125.286 550.964,127.402 C550.964,129.55 550.239,131.308 548.791,132.675 C547.343,134.043 545.43,134.726 543.054,134.726 C540.677,134.726 538.765,134.043 537.317,132.675 C535.868,131.308 535.144,129.55 535.144,127.402 L535.144,127.402 Z" id="Fill-13" fill="#595A59"/>
            <path d="M577.723,184.091 C579.806,184.091 581.727,183.628 583.484,182.7 C585.242,181.772 586.544,180.527 587.391,178.964 L587.391,169.882 L582.117,169.882 C575.054,169.882 571.294,172.324 570.838,177.207 L570.789,178.037 C570.789,179.795 571.407,181.243 572.645,182.382 C573.882,183.522 575.574,184.091 577.723,184.091 Z M589.393,193.906 C588.741,192.636 588.27,191.057 587.977,189.17 C584.559,192.978 580.115,194.882 574.647,194.882 C569.471,194.882 565.182,193.385 561.78,190.39 C558.378,187.395 556.678,183.62 556.678,179.062 C556.678,173.464 558.753,169.167 562.903,166.171 C567.054,163.176 573.052,161.663 580.897,161.63 L587.391,161.63 L587.391,158.603 C587.391,156.162 586.764,154.209 585.511,152.744 C584.257,151.279 582.28,150.546 579.578,150.546 C577.202,150.546 575.338,151.116 573.987,152.255 C572.636,153.395 571.961,154.958 571.961,156.943 L557.85,156.943 C557.85,153.883 558.794,151.051 560.682,148.447 C562.569,145.842 565.239,143.8 568.69,142.319 C572.14,140.839 576.014,140.097 580.311,140.097 C586.82,140.097 591.988,141.733 595.814,145.004 C599.638,148.276 601.551,152.874 601.551,158.799 L601.551,181.699 C601.583,186.712 602.283,190.505 603.651,193.076 L603.651,193.906 L589.393,193.906 L589.393,193.906 Z" id="Fill-14" fill="#595A59"/>
            <path d="M610.325,186.972 C610.325,184.726 611.082,182.903 612.596,181.504 C614.109,180.104 616.005,179.404 618.284,179.404 C620.595,179.404 622.508,180.104 624.022,181.504 C625.535,182.903 626.292,184.726 626.292,186.972 C626.292,189.186 625.543,190.985 624.046,192.368 C622.548,193.752 620.628,194.443 618.284,194.443 C615.973,194.443 614.068,193.752 612.571,192.368 C611.073,190.985 610.325,189.186 610.325,186.972" id="Fill-15" fill="#595A59"/>
            <path d="M655.34,183.506 C657.943,183.506 660.06,182.79 661.688,181.357 C663.315,179.924 664.161,178.02 664.227,175.644 L677.459,175.644 C677.426,179.225 676.449,182.505 674.529,185.483 C672.609,188.462 669.98,190.773 666.644,192.417 C663.307,194.06 659.62,194.882 655.584,194.882 C648.031,194.882 642.074,192.482 637.713,187.68 C633.351,182.88 631.17,176.247 631.17,167.783 L631.17,166.855 C631.17,158.717 633.334,152.223 637.664,147.373 C641.993,142.522 647.934,140.097 655.486,140.097 C662.094,140.097 667.392,141.977 671.38,145.737 C675.367,149.497 677.394,154.502 677.459,160.752 L664.227,160.752 C664.161,158.004 663.315,155.77 661.688,154.051 C660.06,152.333 657.911,151.474 655.242,151.474 C651.954,151.474 649.472,152.673 647.796,155.069 C646.119,157.465 645.281,161.352 645.281,166.731 L645.281,168.199 C645.281,173.643 646.111,177.556 647.772,179.936 C649.432,182.316 651.954,183.506 655.34,183.506" id="Fill-16" fill="#595A59"/>
            <path d="M697.268,146.836 C701.011,142.343 705.715,140.097 711.379,140.097 C722.837,140.097 728.648,146.755 728.811,160.068 L728.811,193.906 L714.699,193.906 L714.699,160.459 C714.699,157.431 714.048,155.194 712.746,153.745 C711.443,152.296 709.279,151.572 706.252,151.572 C702.117,151.572 699.123,153.167 697.268,156.357 L697.268,193.906 L683.156,193.906 L683.156,118.906 L697.268,118.906 L697.268,146.836" id="Fill-17" fill="#595A59"/>
        </g>
    </g>
</svg>