<svg xmlns="http://www.w3.org/2000/svg" viewBox="0 0 143.65 39.59"><defs><style>.a{fill:#111}</style></defs><title>Nameplate-L-Inedit</title><path class="a" d="M15.76 16.14c3.43-.15 5.34-2.89 5.33-5.9 0-1.73-.76-3-3.49-3a6.25 6.25 0 0 0-.94 0V3.12a7.5 7.5 0 0 1 3.24-.86c2.49 0 4.14 2 4.15 5.34 0 3.2-1.89 9.45-8.28 9.53zm7.53 11.12L21.78 38.7.1 38.78v-.6l3.31-1.49-.08-22.24L0 13v-.6h12.16v.6l-3.31 1.43.08 22.64h5.36c3.16 0 5.76-1.26 8.28-9.79zM27.93 38L33 36.32 32.9 6l-4.09-1.65v-.69l14.74-.05v.69L38.41 6l.12 30.34 3.14 1.63v.69l-13.73.05z"/><path class="a" d="M68.73 38v.53H57.49V38l2.69-1.5V22.13c0-2.87-1.45-4.19-4.26-4.17a15.36 15.36 0 0 0-4.93 1.13L51 36.57 53.72 38v.53H42.48V38l3.33-1.5-.07-17.5h-3.39v-.58l8.57-5.29v5.31c5.13-3.57 6.19-4.91 8.31-4.91 2.7 0 6 2.25 6.07 7.45l.06 15.54zm19.5-9c-.62 6.26-4.53 10.09-9.73 10.11s-10.88-3.94-10.92-12.42 5.31-13.18 11.14-13.2a8.46 8.46 0 0 1 8.52 6.6l-14 8.49c1.34 3.49 4 6.19 7.67 6.17 3.28 0 5.66-1.77 6.5-5.75zm-16.15-6.47a17.79 17.79 0 0 0 .65 4.72l9-5.5c-.92-3.39-2.63-6.3-5.23-6.29-2.91.01-4.44 2.94-4.42 7.07zM115 33.72v.58l-8.58 5.29v-6.26l-4.17 5.58a7.64 7.64 0 0 1-1.54.12c-5.88 0-10.73-4.05-10.86-12.21s4.56-13.39 10.13-13.41c2.76 0 4.89 1.41 6.38 4V5.84h-3.4v-.56L111.44 0l.13 33.73zm-8.6-1.4l-.06-13.84a5.23 5.23 0 0 0-4.46-2.16c-4.35 0-6.67 4.06-6.54 9.41.07 4.46 1.78 8.64 6.72 8.62a5.73 5.73 0 0 0 4.31-2.03zm9.32 5.48l3.34-1.5-.06-17.6h-3.4v-.59l8.57-5.28.09 23.44 3.4 1.48v.53h-11.94zm2.79-32l5.77-3.84v5.57l-5.76 3.84zm25.14 24.04c0 7.69-3.79 9-6.55 9-3.34 0-6.79-1.35-6.81-7.5l-.06-15.65h-3.5V14.2h3.86l4.21-9h.69v9h6.32l-.32 1.54h-6l.06 14.75c0 4 1.29 5.14 3.46 5.13s3.55-1.08 3.69-5.75zM78.31 12.61h-.79L78.69.78l5.94-.02-6.32 11.85z"/></svg>