<?xml version="1.0" encoding="UTF-8"?>
<!-- Generator: Adobe Illustrator 22.0.1, SVG Export Plug-In . SVG Version: 6.00 Build 0)  -->
<svg version="1.1" id="Calque_1" xmlns="http://www.w3.org/2000/svg" xmlns:xlink="http://www.w3.org/1999/xlink" x="0px" y="0px" viewBox="0 0 444.8 49.3" style="enable-background:new 0 0 444.8 49.3;" xml:space="preserve">
<style type="text/css">
	.st0{fill:#D51224;}
	.st1{fill:#646363;}
</style>
<g>
	<g>
		<path class="st0" d="M4.4,22.7c0-0.7,0-1.4,0-2.1c0-0.7,0.1-1.4,0.2-2.2l-4.5,0.3v-2.8c1.4,0,2.5,0,3.4-0.1s1.6-0.2,2.1-0.4    c0.5-0.2,0.9-0.4,1.2-0.6s0.6-0.4,0.8-0.7h1.8c0,0.5,0.1,1.1,0.1,1.7c0.1,0.6,0.1,1.4,0.1,2.3c0.7-0.6,1.4-1.2,2.3-1.7    s1.7-1,2.6-1.4c0.9-0.4,1.8-0.7,2.8-0.9c0.9-0.2,1.9-0.3,2.8-0.3c3.7,0,6.4,1.2,8.1,3.6s2.6,6.1,2.6,11.1v12.3c0,0.9,0,1.7,0,2.3    c0,0.7-0.1,1.4-0.2,2.1l4-0.2v2.7h-13v-2c1,0,1.7-0.2,2.2-0.6c0.5-0.4,0.9-0.9,1.1-1.7c0.2-0.7,0.4-1.6,0.4-2.5c0-1,0-2.1,0-3.2    v-9.2c0-3.8-0.6-6.6-1.8-8.6s-3-2.9-5.6-2.9c-0.8,0-1.5,0.1-2.3,0.4c-0.8,0.2-1.5,0.5-2.2,0.9s-1.4,0.8-2,1.3s-1.2,1.1-1.6,1.7    c0,0.4,0,0.8,0,1.2v1.3l0.1,16.9c0,0.9,0,1.7,0,2.3c0,0.7-0.1,1.4-0.2,2.1l4-0.2v2.7h-13v-2c1,0,1.7-0.2,2.2-0.6    c0.5-0.4,0.9-0.9,1.1-1.7c0.2-0.7,0.3-1.6,0.4-2.5c0-1,0.1-2.1,0.1-3.2L4.4,22.7z"/>
		<path class="st0" d="M52.6,16.2c-1.7,0-3.1,0.4-4.3,1.2c-1.2,0.8-2.2,1.8-2.9,3.1c-0.8,1.3-1.3,2.8-1.7,4.4    c-0.5,1.7-0.7,3.4-0.7,5.2c0,2,0.2,4,0.6,6c0.4,1.9,1,3.6,1.9,5.1s1.9,2.7,3.1,3.6c1.3,0.9,2.7,1.4,4.4,1.4s3.1-0.4,4.3-1.2    s2.1-1.8,2.8-3.1s1.2-2.8,1.5-4.4s0.5-3.3,0.5-5.1c0-2-0.2-3.9-0.5-5.9c-0.4-1.9-0.9-3.7-1.7-5.2s-1.8-2.8-3-3.7    C55.7,16.7,54.3,16.2,52.6,16.2 M52.6,13.7c2.2,0,4.3,0.4,6.3,1.3c2,0.8,3.7,2,5.1,3.5s2.6,3.3,3.4,5.3c0.8,2,1.3,4.3,1.3,6.6    c0,2.5-0.4,4.9-1.2,7.2s-2,4.2-3.4,5.8c-1.4,1.7-3.2,3-5.1,3.9c-2,1-4.1,1.4-6.4,1.4c-2.2,0-4.3-0.4-6.3-1.2    c-1.9-0.8-3.6-2-5.1-3.5c-1.4-1.5-2.6-3.2-3.4-5.3c-0.8-2-1.2-4.3-1.2-6.7c0-2.6,0.4-5,1.2-7.2s1.9-4.2,3.4-5.8    c1.4-1.6,3.1-2.9,5.1-3.9C48.2,14.2,50.3,13.7,52.6,13.7"/>
		<path class="st0" d="M69.6,14.8c1.1,0,2.1-0.3,3.1-0.9c0.9-0.6,1.7-1.4,2.4-2.3s1.3-1.9,1.8-3s0.9-2.1,1.1-3h2.2    c0,1.8,0,3.4,0,4.9s0,3,0,4.3H91v2.5l-10.8,0.1c0,2.9,0,5.3,0,7.3s0,3.7,0,5s0,2.4,0,3.2s0,1.4,0,1.8c0,0.4,0,0.7,0,0.8v0.2    c0,1.5,0.1,2.8,0.2,4c0.2,1.1,0.4,2.1,0.8,2.9c0.4,0.8,0.9,1.4,1.5,1.8c0.6,0.4,1.4,0.6,2.3,0.6c1.1,0,2.2-0.3,3.3-1    s2-1.7,2.9-2.9l1.7,1.4C92,44,91,45.1,90.1,45.9c-0.9,0.8-1.8,1.4-2.6,1.9c-0.8,0.4-1.6,0.7-2.3,0.8c-0.7,0.1-1.3,0.2-1.9,0.2    s-1.3-0.1-2-0.2s-1.3-0.3-2-0.6s-1.3-0.8-1.8-1.3c-0.6-0.6-1.1-1.3-1.5-2.2s-0.8-2-1-3.3s-0.4-2.8-0.3-4.6l0.1-19h-4.9v-2.8H69.6z    "/>
		<path class="st0" d="M112.8,17.3c-0.8,0-1.6,0.1-2.5,0.5c-0.8,0.3-1.6,0.8-2.4,1.5s-1.6,1.4-2.3,2.3c-0.7,0.9-1.3,1.9-1.9,3    l0.1,16.2c0,0.9,0,1.7,0,2.3c0,0.7-0.1,1.4-0.2,2.1l4-0.2v2.7H94.5v-2c1,0,1.7-0.2,2.2-0.6c0.5-0.4,0.9-0.9,1.1-1.7    c0.2-0.7,0.4-1.6,0.4-2.5c0-1,0-2.1,0-3.2v-15c0-0.7,0-1.4,0-2.1s0.1-1.4,0.2-2.2L94,18.6v-2.7h2c0.9,0,1.7,0,2.3-0.1    c0.6-0.1,1.1-0.2,1.5-0.4c0.4-0.2,0.7-0.4,1-0.6s0.5-0.4,0.8-0.7h1.8c0.1,0.7,0.1,1.5,0.2,2.6c0.1,1,0.1,2.3,0.1,3.9    c0.5-0.8,1.1-1.6,1.8-2.5c0.7-0.8,1.6-1.6,2.5-2.2c0.9-0.7,1.9-1.2,3-1.6s2.2-0.6,3.3-0.6c0.6,0,1.1,0.1,1.7,0.2s1,0.4,1.4,0.8    s0.7,0.8,1,1.3c0.2,0.5,0.4,1.1,0.4,1.9c0,0.3-0.1,0.6-0.2,1s-0.3,0.7-0.6,1c-0.3,0.3-0.6,0.6-1,0.8c-0.4,0.2-0.9,0.3-1.5,0.3    c-0.5,0-0.9-0.1-1.3-0.3c-0.4-0.2-0.7-0.5-1-0.8s-0.4-0.7-0.6-1.2C112.8,18.3,112.8,17.8,112.8,17.3"/>
		<path class="st0" d="M135.6,16.3c-2.5,0-4.6,0.8-6.2,2.3c-1.6,1.5-2.7,3.9-3.2,7.3h16.3c0-1.2-0.1-2.3-0.4-3.4    c-0.2-1.1-0.6-2.2-1.2-3.1c-0.6-0.9-1.3-1.6-2.1-2.2S136.9,16.3,135.6,16.3 M148.5,28.3L126,28.6c0,2.5,0.2,4.8,0.6,6.9    s1,3.8,1.9,5.3c0.9,1.5,1.9,2.6,3.3,3.4c1.3,0.8,2.9,1.2,4.8,1.2c1,0,2-0.1,3.1-0.4c1-0.3,2-0.7,3-1.1c1-0.5,1.9-1.1,2.7-1.7    c0.8-0.7,1.5-1.4,2-2.2l1.6,1.3c-0.9,1.4-1.9,2.5-3,3.5c-1.2,1-2.4,1.7-3.6,2.3c-1.2,0.6-2.5,1-3.7,1.3s-2.4,0.4-3.5,0.4    c-2.2,0-4.3-0.4-6.2-1.2c-1.9-0.8-3.6-2-4.9-3.5c-1.4-1.5-2.5-3.4-3.3-5.5s-1.2-4.6-1.2-7.2c0-2.3,0.4-4.5,1.2-6.6s1.9-4,3.3-5.6    s3.1-2.9,5.1-3.9s4.2-1.4,6.6-1.4c1.8,0,3.4,0.3,5,0.9s2.9,1.5,4.1,2.7c1.2,1.2,2.1,2.7,2.8,4.5C148.2,23.7,148.5,25.8,148.5,28.3    "/>
	</g>
	<polygon class="st1" points="193.4,47.7 184.1,47.7 184.1,28.2 165.8,28.2 165.8,47.7 156.4,47.7 156.4,2.2 165.8,2.2 165.8,20.6    184.1,20.6 184.1,2.2 193.4,2.2  "/>
	<g>
		<path class="st1" d="M209,47.7h-9V13.9h9V47.7z M199.4,5.2c0-1.4,0.5-2.5,1.4-3.3c0.9-0.9,2.1-1.3,3.7-1.3c1.5,0,2.8,0.4,3.7,1.3    c0.9,0.9,1.4,2,1.4,3.3c0,1.4-0.5,2.5-1.4,3.4s-2.1,1.3-3.7,1.3c-1.5,0-2.7-0.4-3.7-1.3C199.9,7.7,199.4,6.5,199.4,5.2"/>
		<path class="st1" d="M232.7,38.3c0-1.1-0.5-2-1.6-2.6s-2.8-1.2-5.3-1.7c-8-1.7-12-5.1-12-10.2c0-3,1.2-5.5,3.7-7.5s5.7-3,9.8-3    c4.3,0,7.7,1,10.3,3s3.9,4.6,3.9,7.9h-9c0-1.3-0.4-2.4-1.2-3.2s-2.1-1.3-3.9-1.3c-1.5,0-2.7,0.3-3.5,1s-1.2,1.6-1.2,2.6    s0.5,1.8,1.4,2.4c0.9,0.6,2.5,1.1,4.8,1.6c2.2,0.4,4.1,1,5.7,1.5c4.8,1.7,7.1,4.8,7.1,9.1c0,3.1-1.3,5.6-4,7.5    c-2.6,1.9-6.1,2.9-10.2,2.9c-2.8,0-5.3-0.5-7.5-1.5s-3.9-2.4-5.2-4.2c-1.2-1.8-1.9-3.7-1.9-5.7h8.6c0.1,1.6,0.7,2.8,1.8,3.7    s2.6,1.3,4.4,1.3c1.7,0,3-0.3,3.9-1C232.3,40.3,232.7,39.4,232.7,38.3"/>
		<path class="st1" d="M257,5.6v8.3h5.8v6.6H257v16.9c0,1.2,0.2,2.1,0.7,2.7c0.5,0.5,1.4,0.8,2.7,0.8c1,0,1.9-0.1,2.7-0.2v6.8    c-1.8,0.5-3.6,0.8-5.5,0.8c-6.3,0-9.5-3.2-9.7-9.6V20.5H243v-6.6h4.9V5.6C248,5.6,257,5.6,257,5.6z"/>
		<path class="st1" d="M273.2,31.1c0,3.2,0.6,5.7,1.8,7.4c1.2,1.7,2.9,2.5,5.2,2.5c2.2,0,3.9-0.8,5.1-2.5s1.8-4.4,1.8-8    c0-3.1-0.6-5.6-1.8-7.3c-1.2-1.7-3-2.6-5.2-2.6s-3.9,0.9-5.1,2.6C273.8,24.9,273.2,27.5,273.2,31.1 M264.2,30.5    c0-3.3,0.6-6.3,1.9-9c1.3-2.6,3.1-4.6,5.6-6.1c2.4-1.4,5.2-2.2,8.4-2.2c4.6,0,8.3,1.4,11.2,4.2c2.9,2.8,4.5,6.6,4.8,11.4l0.1,2.3    c0,5.2-1.4,9.3-4.3,12.5s-6.9,4.7-11.7,4.7c-4.9,0-8.8-1.6-11.7-4.7c-2.9-3.1-4.4-7.4-4.4-12.7L264.2,30.5L264.2,30.5z"/>
		<path class="st1" d="M309.2,47.7h-9.1V13.9h9.1V47.7z M299.6,5.2c0-1.4,0.5-2.5,1.4-3.3c0.9-0.9,2.1-1.3,3.7-1.3    c1.5,0,2.8,0.4,3.7,1.3c0.9,0.9,1.4,2,1.4,3.3c0,1.4-0.5,2.5-1.4,3.4s-2.1,1.3-3.7,1.3c-1.5,0-2.7-0.4-3.7-1.3    C300.1,7.7,299.6,6.5,299.6,5.2"/>
		<path class="st1" d="M333.9,22.4c-1.2-0.2-2.3-0.2-3.2-0.2c-3.4,0-5.6,1.2-6.7,3.5v22.1h-9V13.9h8.5l0.2,4    c1.8-3.1,4.3-4.6,7.5-4.6c1,0,1.9,0.1,2.8,0.4L333.9,22.4z"/>
		<path class="st1" d="M351,20.6c-1.8,0-3.2,0.6-4.4,1.8c-1.1,1.2-1.8,2.9-2.1,5.2H357v-0.7c0-2-0.6-3.6-1.6-4.7    C354.3,21.1,352.9,20.6,351,20.6 M352,48.3c-5,0-9-1.5-12.1-4.6s-4.7-7.1-4.7-12.1v-0.9c0-3.4,0.7-6.4,2-9.1    c1.3-2.7,3.2-4.7,5.6-6.2c2.4-1.4,5.1-2.2,8.2-2.2c4.6,0,8.3,1.5,10.9,4.4c2.7,2.9,4,7,4,12.4v3.7h-21.5c0.3,2.2,1.2,4,2.6,5.3    c1.5,1.3,3.3,2,5.6,2c3.5,0,6.2-1.3,8.1-3.8l4.4,5c-1.4,1.9-3.2,3.4-5.5,4.5C357.4,47.8,354.8,48.3,352,48.3"/>
		<path class="st1" d="M369.1,41.8c0-1.4,0.5-2.6,1.5-3.5s2.2-1.3,3.6-1.3c1.5,0,2.7,0.4,3.7,1.3c1,0.9,1.5,2.1,1.5,3.5    s-0.5,2.6-1.4,3.4c-1,0.9-2.2,1.3-3.7,1.3s-2.7-0.4-3.7-1.3C369.6,44.4,369.1,43.3,369.1,41.8"/>
		<path class="st1" d="M397.9,41c1.7,0,3-0.5,4.1-1.4c1-0.9,1.6-2.1,1.6-3.7h8.5c0,2.3-0.6,4.4-1.9,6.3c-1.2,1.9-2.9,3.4-5,4.4    c-2.1,1.1-4.5,1.6-7.1,1.6c-4.8,0-8.6-1.5-11.4-4.6s-4.2-7.3-4.2-12.7v-0.6c0-5.2,1.4-9.4,4.2-12.5s6.4-4.5,11.3-4.5    c4.2,0,7.6,1.2,10.2,3.6c2.5,2.4,3.8,5.6,3.9,9.6h-8.5c0-1.8-0.6-3.2-1.6-4.3c-1-1.1-2.4-1.6-4.1-1.6c-2.1,0-3.7,0.8-4.8,2.3    c-1.1,1.5-1.6,4-1.6,7.5v0.9c0,3.5,0.5,6,1.6,7.5C394.1,40.3,395.7,41,397.9,41"/>
		<path class="st1" d="M424.7,17.6c2.4-2.9,5.4-4.3,9-4.3c7.3,0,11,4.3,11.1,12.8v21.6h-9V26.3c0-1.9-0.4-3.4-1.2-4.3    c-0.8-0.9-2.2-1.4-4.2-1.4c-2.6,0-4.6,1-5.7,3.1v24h-9v-48h9L424.7,17.6L424.7,17.6z"/>
	</g>
</g>
</svg>