<?xml version="1.0" encoding="UTF-8"?>
<svg width="699px" height="104px" viewBox="0 0 699 104" version="1.1" xmlns="http://www.w3.org/2000/svg" xmlns:xlink="http://www.w3.org/1999/xlink">
    <!-- Generator: Sketch 46.2 (44496) - http://www.bohemiancoding.com/sketch -->
    <title>logo_nH_ro_rvb_colors-1</title>
    <desc>Created with Sketch.</desc>
    <defs/>
    <g id="Page-1" stroke="none" stroke-width="1" fill="none" fill-rule="evenodd">
        <g id="logo_nH_ro_rvb_colors-1" fill-rule="nonzero">
            <path d="M48.82,75.67 C48.82,74.6166667 48.82,73.4033333 48.82,72.03 L48.82,52.83 C48.82,44.9633333 47.4866667,39.16 44.82,35.42 C42.1533333,31.68 37.9466667,29.8166667 32.2,29.83 C30.7309509,29.8357114 29.2676341,30.0135917 27.84,30.36 C26.3615314,30.7132254 24.9187631,31.201959 23.53,31.82 C22.1408794,32.4392677 20.803313,33.1682414 19.53,34 C18.2839973,34.809238 17.1036795,35.7153742 16,36.71 C15.9333333,35.3033333 15.86,34.1066667 15.78,33.12 L15.56,30.48 L12.66,30.48 C12.2617643,30.8440287 11.8372852,31.1782642 11.39,31.48 C10.7956353,31.8641141 10.1489787,32.1604984 9.47,32.36 C8.39662511,32.6772931 7.29466015,32.8883077 6.18,32.99 C4.41531765,33.1605849 2.64282308,33.2373596 0.87,33.22 L0.87,37.54 L7.94,37.14 C7.74921569,38.2709672 7.63561991,39.4136071 7.6,40.56 C7.6,41.6666667 7.6,42.7566667 7.6,43.83 L7.5,67.29 C7.5,69.13 7.46,70.82 7.38,72.36 C7.36583141,73.7132261 7.17076944,75.058481 6.8,76.36 C6.48747198,77.3857525 5.85715815,78.2857005 5,78.93 C3.97439253,79.6154908 2.75083962,79.9424747 1.52,79.86 L1.52,82.92 L21.92,82.92 L21.92,78.7 L15.63,79 C15.8177766,77.8955063 15.9313642,76.7796757 15.97,75.66 C15.97,74.6066667 15.97,73.3933333 15.97,72.02 L16.07,45.75 L16.07,43.67 C16.07,43.0033333 16.07,42.36 16.07,41.74 C16.810115,40.7755649 17.6590651,39.8997706 18.6,39.13 C19.5646362,38.3154526 20.6100795,37.6017365 21.72,37 C22.8251142,36.4141328 23.9837209,35.9352866 25.18,35.57 C26.3490962,35.2073355 27.5659462,35.0219429 28.79,35.02 C32.75,35.02 35.64,36.52 37.46,39.52 C39.28,42.52 40.2233333,46.9833333 40.29,52.91 L40.29,67.3 C40.29,69.14 40.2666667,70.83 40.22,72.37 C40.2047463,73.7253006 39.9994115,75.0717584 39.61,76.37 C39.31092,77.3895403 38.7072721,78.2932675 37.88,78.96 C36.8543925,79.6454908 35.6308396,79.9724747 34.4,79.89 L34.4,82.95 L54.77,82.95 L54.77,78.73 L48.48,79.03 C48.6686673,77.9189072 48.7822578,76.796365 48.82,75.67 L48.82,75.67 Z" id="Shape" fill="#D41226"/>
            <path d="M101.09,37.29 C96.4174925,32.480932 89.9850412,29.7865981 83.28,29.83 C79.8619656,29.7991516 76.481131,30.5409525 73.39,32 C70.3596832,33.4340167 67.6569451,35.476388 65.45,38 C63.1397291,40.6768061 61.3460526,43.7589458 60.16,47.09 C58.8551864,50.7234516 58.2051198,54.5595218 58.24,58.42 C58.1891437,62.0395504 58.8482345,65.6339738 60.18,69 C61.4020404,72.0763949 63.2163751,74.8828377 65.52,77.26 C67.7787046,79.5731193 70.4786886,81.4093804 73.46,82.66 C76.5687387,83.9620972 79.909705,84.618723 83.28,84.59 C86.7145942,84.6130464 90.1085665,83.8466656 93.2,82.35 C96.2514418,80.8781023 98.9728946,78.8029945 101.2,76.25 C103.515135,73.5731823 105.315394,70.4913842 106.51,67.16 C107.809928,63.5702811 108.460081,59.7777204 108.43,55.96 C108.452466,52.4053802 107.772799,48.8813094 106.43,45.59 C105.197793,42.5069738 103.384962,39.6892779 101.09,37.29 L101.09,37.29 Z M97.51,66.94 C97.0837685,69.3516784 96.2699064,71.6784459 95.1,73.83 C94.0402086,75.7706638 92.5358086,77.4327003 90.71,78.68 C86.5221136,81.2255929 81.2391509,81.1164247 77.16,78.4 C75.1288505,76.9186957 73.4546648,75.0019238 72.26,72.79 C70.8959327,70.2846106 69.9182318,67.5875047 69.36,64.79 C68.7058039,61.7329471 68.370675,58.6162487 68.36,55.49 C68.3504523,52.7507226 68.635423,50.0183564 69.21,47.34 C69.7131894,44.8973552 70.6116662,42.553209 71.87,40.4 C73.007169,38.4544165 74.5821686,36.8006669 76.47,35.57 C78.4944249,34.3191881 80.8413645,33.6898606 83.22,33.76 C85.7124042,33.6897332 88.152836,34.4808428 90.13,36 C92.0927646,37.5546594 93.6817767,39.5298186 94.78,41.78 C96.0395546,44.3403184 96.9252452,47.0681108 97.41,49.88 C97.9625272,52.8986617 98.2403302,55.9611884 98.24,59.03 C98.2426918,61.6836087 97.9983037,64.3317044 97.51,66.94 L97.51,66.94 Z" id="Shape" fill="#D41226"/>
            <path d="M147.64,59.52 C146.232871,58.2806428 144.673667,57.2254918 143,56.38 C141.246667,55.4933333 139.46,54.6566667 137.64,53.87 L132.28,51.56 C130.62962,50.8636625 129.051976,50.0061749 127.57,49 C126.284027,48.1388851 125.168568,47.0471592 124.28,45.78 C123.421038,44.5125216 122.974043,43.0108962 123,41.48 C122.988741,39.3663124 123.919827,37.3575126 125.54,36 C126.423106,35.245757 127.441033,34.6655385 128.54,34.29 C129.875022,33.8498041 131.274468,33.6368448 132.68,33.66 C134.634771,33.610636 136.568553,34.0725377 138.29,35 C139.809913,35.8369259 141.130254,36.9935037 142.16,38.39 C143.200094,39.813115 143.991312,41.4023129 144.5,43.09 C145.031432,44.8066446 145.3669,46.5779137 145.5,48.37 L148.62,48.37 L148.62,30.37 L144.43,30.37 L144.67,34.29 C143.682169,33.4883664 142.620782,32.7818916 141.5,32.18 C140.467883,31.6292276 139.39064,31.1675521 138.28,30.8 C137.258241,30.4598004 136.207043,30.2154136 135.14,30.07 C134.17863,29.9411425 133.209958,29.8743375 132.24,29.87 C129.391943,29.7729542 126.556735,30.29496 123.93,31.4 C121.933551,32.2760849 120.147088,33.5682022 118.69,35.19 C117.46612,36.5870748 116.549632,38.2258508 116,40 C115.51004,41.5368928 115.247265,43.1371277 115.22,44.75 C115.162969,46.8190523 115.587463,48.8730584 116.46,50.75 C117.260036,52.3597346 118.359672,53.8021585 119.7,55 C121.093652,56.2379133 122.639448,57.2930874 124.3,58.14 C126.02,59.0266667 127.783333,59.84 129.59,60.58 L134.9,62.74 C136.517679,63.3795092 138.068488,64.1766853 139.53,65.12 C140.795893,65.9304654 141.901117,66.967884 142.79,68.18 C143.635405,69.4205282 144.059608,70.8999776 144,72.4 C144.032697,73.6822325 143.684717,74.9454022 143,76.03 C142.33298,77.0499044 141.452761,77.9130648 140.42,78.56 C139.33763,79.2397013 138.152266,79.7395127 136.91,80.04 C135.657601,80.3551421 134.371435,80.5163325 133.08,80.52 C131.183383,80.5292472 129.303773,80.1621624 127.55,79.44 C124.044598,78.0041192 121.221549,75.2812552 119.66,71.83 C118.813658,69.9782887 118.325076,67.9832457 118.22,65.95 L115.15,65.95 L115.73,83.63 L120,83.63 L119.66,80.06 C124.156945,83.1003683 129.482608,84.67886 134.91,84.58 C137.028895,84.5798751 139.13689,84.2768088 141.17,83.68 C143.176438,83.1075377 145.060923,82.1720741 146.73,80.92 C148.398647,79.6646582 149.76535,78.051949 150.73,76.2 C151.77723,74.1143016 152.295774,71.8031776 152.24,69.47 C152.292575,67.4881581 151.867259,65.5227854 151,63.74 C150.156428,62.1338457 149.016345,60.7019557 147.64,59.52 Z" id="Shape" fill="#D41226"/>
            <path d="M191.94,59.52 C190.520463,58.2778102 188.947666,57.2225576 187.26,56.38 C185.506667,55.4933333 183.72,54.6566667 181.9,53.87 L176.54,51.56 C174.903425,50.8613087 173.339279,50.0038756 171.87,49 C170.584027,48.1388851 169.468568,47.0471592 168.58,45.78 C167.731204,44.5022637 167.298104,42.993398 167.34,41.46 C167.324762,39.3598208 168.240128,37.36066 169.84,36 C170.723106,35.245757 171.741033,34.6655385 172.84,34.29 C174.175022,33.8498041 175.574468,33.6368448 176.98,33.66 C178.934771,33.610636 180.868553,34.0725377 182.59,35 C184.109913,35.8369259 185.430254,36.9935037 186.46,38.39 C187.500094,39.813115 188.291312,41.4023129 188.8,43.09 C189.331432,44.8066446 189.6669,46.5779137 189.8,48.37 L192.92,48.37 L192.92,30.37 L188.73,30.37 L188.97,34.29 C187.982169,33.4883664 186.920782,32.7818916 185.8,32.18 C184.767883,31.6292276 183.69064,31.1675521 182.58,30.8 C181.558241,30.4598004 180.507043,30.2154136 179.44,30.07 C178.47863,29.9411425 177.509958,29.8743375 176.54,29.87 C173.691943,29.7729542 170.856735,30.29496 168.23,31.4 C166.240824,32.2656101 164.458165,33.5438073 163,35.15 C161.756899,36.5551606 160.826375,38.2082906 160.27,40 C159.78004,41.5368928 159.517265,43.1371277 159.49,44.75 C159.432969,46.8190523 159.857463,48.8730584 160.73,50.75 C161.538937,52.3622743 162.648893,53.8048776 164,55 C165.393652,56.2379133 166.939448,57.2930874 168.6,58.14 C170.32,59.0266667 172.083333,59.84 173.89,60.58 L179.2,62.74 C180.817679,63.3795092 182.368488,64.1766853 183.83,65.12 C185.095893,65.9304654 186.201117,66.967884 187.09,68.18 C187.937787,69.4057959 188.3722,70.8701888 188.33,72.36 C188.362697,73.6422325 188.014717,74.9054022 187.33,75.99 C186.66298,77.0099044 185.782761,77.8730648 184.75,78.52 C183.66763,79.1997013 182.482266,79.6995127 181.24,80 C179.987601,80.3151421 178.701435,80.4763325 177.41,80.48 C175.513383,80.4892472 173.633773,80.1221624 171.88,79.4 C168.374598,77.9641192 165.551549,75.2412552 163.99,71.79 C163.143658,69.9382887 162.655076,67.9432457 162.55,65.91 L159.48,65.91 L160.06,83.59 L164.25,83.59 L163.91,80.02 C168.406945,83.0603683 173.732608,84.63886 179.16,84.54 C181.278895,84.5398751 183.38689,84.2368088 185.42,83.64 C187.426438,83.0675377 189.310923,82.1320741 190.98,80.88 C192.648647,79.6246582 194.01535,78.011949 194.98,76.16 C196.02723,74.0743016 196.545774,71.7631776 196.49,69.43 C196.542575,67.4481581 196.117259,65.4827854 195.25,63.7 C194.417081,62.112384 193.294427,60.6946513 191.94,59.52 L191.94,59.52 Z" id="Shape" fill="#D41226"/>
            <path d="M241.39,75.26 C241.436667,74.1733333 241.46,73.0933333 241.46,72.02 L241.56,48.91 C241.56,42.2766667 240.253333,37.4366667 237.64,34.39 C235.026667,31.3433333 230.91,29.82 225.29,29.82 C222.61801,29.8118303 219.956101,30.14793 217.37,30.82 C215.158656,31.3688488 213.046557,32.2595743 211.11,33.46 C209.475784,34.4497095 208.07398,35.7798887 207,37.36 C206.050401,38.7883554 205.5426,40.4647943 205.54,42.18 C205.505079,43.4724604 205.910601,44.7383943 206.69,45.77 C207.415781,46.7392253 208.569879,47.2919974 209.78,47.25 C210.527422,47.2837151 211.271913,47.1361892 211.95,46.82 C212.466947,46.5525812 212.917859,46.1734051 213.27,45.71 C213.60602,45.2710486 213.863181,44.7770286 214.03,44.25 C214.178481,43.8045702 214.259379,43.3394056 214.27,42.87 C214.265874,42.1945319 214.175134,41.522382 214,40.87 C213.813807,40.1784948 213.47173,39.5388115 213,39 C213.468309,38.0556576 214.105469,37.2049812 214.88,36.49 C215.638122,35.7889524 216.50207,35.2118623 217.44,34.78 C218.357944,34.3523407 219.325301,34.0399651 220.32,33.85 C221.332401,33.6614127 222.360187,33.5676733 223.39,33.57 C225.101384,33.5348389 226.791704,33.9522444 228.29,34.78 C229.642,35.5180031 230.732014,36.6569277 231.41,38.04 C232.094182,39.4798583 232.530313,41.0249125 232.7,42.61 C232.896352,44.3262932 232.993181,46.0525144 232.99,47.78 L232.99,54.21 C230.684067,54.1811601 228.37882,54.3081158 226.09,54.59 C223.750391,54.8806427 221.436806,55.3520524 219.17,56 C216.963928,56.6177732 214.818465,57.4344551 212.76,58.44 C210.842303,59.3629357 209.061985,60.547571 207.47,61.96 C205.990946,63.274807 204.767133,64.8511856 203.86,66.61 C202.228307,69.9187329 202.079258,73.7649156 203.45,77.19 C204.068937,78.6811209 205.019697,80.0115003 206.23,81.08 C207.58478,82.2548012 209.167958,83.1366146 210.88,83.67 C212.999962,84.3264498 215.211096,84.6403971 217.43,84.6 C220.35247,84.6114258 223.235538,83.9257974 225.84,82.6 C228.572073,81.1952607 231.049659,79.3429862 233.17,77.12 C233.236667,78.0933333 233.316667,79.0133333 233.41,79.88 C233.503333,80.7466667 233.65,81.7666667 233.85,82.94 L248.13,82.94 L248.13,78.62 L241.06,79.02 C241.233333,77.6066667 241.343333,76.3533333 241.39,75.26 Z M232.94,72.67 C231.99566,73.5864849 230.993611,74.4415673 229.94,75.23 C228.975721,75.9483582 227.948163,76.5776118 226.87,77.11 C225.806178,77.6314899 224.685315,78.0274836 223.53,78.29 C222.298975,78.5636557 221.041051,78.6978343 219.78,78.69 C218.786489,78.6967466 217.799071,78.5344312 216.86,78.21 C215.97159,77.9034266 215.152555,77.4242399 214.45,76.8 C213.720738,76.1420174 213.138112,75.3379259 212.74,74.44 C212.278238,73.3866704 212.036628,72.2500796 212.03,71.1 C211.941935,69.6184121 212.209369,68.1372401 212.81,66.78 C213.394093,65.5073081 214.223215,64.3621673 215.25,63.41 C216.340565,62.4033284 217.569716,61.5580763 218.9,60.9 C220.329148,60.1847966 221.822389,59.6055799 223.36,59.17 C224.939856,58.7184543 226.550905,58.3842118 228.18,58.17 C229.82,57.95 231.403333,57.8066667 232.93,57.74 L232.94,72.67 Z" id="Shape" fill="#D41226"/>
            <path d="M309.25,53.53 C306.350253,52.5183105 303.378543,51.7260775 300.36,51.16 C297.734217,50.7724835 295.196168,49.9298514 292.86,48.67 C291.492803,47.9022114 290.644631,46.4580261 290.64,44.89 C290.622642,43.2843725 291.363948,41.7646958 292.64,40.79 C294.234837,39.6237784 296.188273,39.0540265 298.16,39.18 C300.926667,39.18 302.96,39.8466667 304.26,41.18 C305.583309,42.5024178 306.306246,44.3097604 306.26,46.18 L320.37,46.18 C320.477508,41.3507995 318.241988,36.7679827 314.37,33.88 C310.37,30.72 305.006667,29.14 298.28,29.14 C292,29.14 286.913333,30.71 283.02,33.85 C279.320361,36.6136082 277.155895,40.9722411 277.19,45.59 C277.19,53.63 283.473333,58.9633333 296.04,61.59 C298.90038,62.0623319 301.674261,62.9588719 304.27,64.25 C305.832237,65.0097787 306.825512,66.5928101 306.83,68.33 C306.846713,69.9266778 306.066702,71.4266984 304.75,72.33 C303.363333,73.3566667 301.32,73.87 298.62,73.87 C296.150871,74.0011531 293.709563,73.296591 291.69,71.87 C289.933932,70.47401 288.910413,68.3533377 288.91,66.11 L275.41,66.11 C275.415416,69.315834 276.441674,72.4366383 278.34,75.02 C280.408654,77.8630094 283.197724,80.1032405 286.42,81.51 C290.131283,83.1467372 294.15453,83.9554815 298.21,83.88 C304.75,83.88 310.083333,82.39 314.21,79.41 C318.134768,76.8254275 320.471829,72.4189354 320.41,67.72 C320.423333,60.9933333 316.703333,56.2633333 309.25,53.53 Z" id="Shape" fill="#646462"/>
            <path d="M345.83,71 C344.969416,69.7775814 344.572358,68.2886122 344.71,66.8 L344.71,40.45 L353.71,40.45 L353.71,30.09 L344.71,30.09 L344.71,17.09 L330.59,17.09 L330.59,30.09 L322.88,30.09 L322.88,40.45 L330.59,40.45 L330.59,68.92 C330.783333,78.92 335.83,83.92 345.73,83.92 C348.62409,83.9251687 351.502651,83.4970923 354.27,82.65 L354.27,71.94 C352.900187,72.1816522 351.510879,72.295475 350.12,72.28 C348.006667,72.28 346.576667,71.8533333 345.83,71 Z" id="Shape" fill="#646462"/>
            <path d="M400.21,35.66 C395.703333,31.3 389.883333,29.12 382.75,29.12 C378.122016,29.0200774 373.554538,30.1852857 369.54,32.49 C365.758088,34.7264323 362.726354,38.0366266 360.83,42 C358.762777,46.3725449 357.735966,51.1643285 357.83,56 L357.83,56.63 C357.83,65.03 360.1,71.67 364.64,76.55 C369.18,81.43 375.26,83.87 382.88,83.87 C390.5,83.87 396.57,81.42 401.09,76.52 C405.61,71.62 407.863333,65.1133333 407.85,57 L407.75,53.39 C407.25,45.93 404.736667,40.02 400.21,35.66 Z M390.86,68.59 C388.934548,71.0880972 385.959022,72.5514676 382.805,72.5514676 C379.650978,72.5514676 376.675452,71.0880972 374.75,68.59 C372.863333,65.9233333 371.92,62.0833333 371.92,57.07 C371.92,51.43 372.863333,47.2633333 374.75,44.57 C376.546778,41.9443851 379.571441,40.4320531 382.75,40.57 C385.971843,40.4377057 389.035351,41.9713484 390.86,44.63 C392.78,47.3366667 393.74,51.15 393.74,56.07 C393.74,61.79 392.78,65.9633333 390.86,68.59 L390.86,68.59 Z" id="Shape" fill="#646462"/>
            <path d="M429.46,36.39 L429.07,30.09 L415.74,30.09 L415.74,82.92 L429.85,82.92 L429.85,48.36 C431.51,44.7466667 435.01,42.94 440.35,42.94 C442.050093,42.9575432 443.747152,43.0878291 445.43,43.33 L445.63,29.76 C444.206616,29.3306959 442.72667,29.1183119 441.24,29.13 C436.22,29.1233333 432.293333,31.5433333 429.46,36.39 Z" id="Shape" fill="#646462"/>
            <path d="M482,35.07 C478.78,31.07 474.27,29.07 468.47,29.07 C462.372485,28.8579227 456.553066,31.6258769 452.87,36.49 C449.01,41.4366667 447.08,47.9633333 447.08,56.07 L447.08,56.66 C447.08,64.86 449.04,71.4433333 452.96,76.41 C456.591983,81.2363901 462.331583,84.0112129 468.37,83.86 C473.261201,84.0384839 477.974277,82.0123013 481.21,78.34 L481.21,81.17 C481.21,84.85 480.17,87.69 478.09,89.69 C476.01,91.69 473.096667,92.69 469.35,92.69 C464.418516,92.7265402 459.728274,90.5592743 456.56,86.78 L450.31,95.37 C452.526057,98.0601207 455.40354,100.127773 458.66,101.37 C462.242839,102.911233 466.099759,103.713908 470,103.73 C474.596911,103.816053 479.155905,102.883765 483.35,101 C487.014786,99.3364505 490.099752,96.6170839 492.21,93.19 C494.370738,89.5451757 495.462334,85.3659252 495.36,81.13 L495.36,30.09 L482.57,30.09 L482,35.07 Z M481.22,67.68 C479.366667,70.9066667 476.29,72.52 471.99,72.52 C468.825405,72.6184291 465.834356,71.0756374 464.08,68.44 C462.16,65.72 461.2,61.9633333 461.2,57.17 C461.2,51.6633333 462.17,47.5233333 464.11,44.75 C465.870455,42.0650027 468.900912,40.489165 472.11,40.59 C476.31,40.59 479.353333,42.2033333 481.24,45.43 L481.22,67.68 Z" id="Shape" fill="#646462"/>
            <rect id="Rectangle-path" fill="#646462" x="505.33" y="30.09" width="14.16" height="52.83"/>
            <path d="M512.41,9.15 C510.284111,9.03569456 508.200343,9.77347065 506.62,11.2 C503.756079,14.1141399 503.756079,18.7858601 506.62,21.7 C509.95523,24.4321644 514.75477,24.4321644 518.09,21.7 C520.970113,18.7925037 520.970113,14.1074963 518.09,11.2 C516.537168,9.80089754 514.498436,9.06508771 512.41,9.15 Z" id="Shape" fill="#646462"/>
            <path d="M570.91,47.82 C570.91,41.8933333 568.996667,37.2966667 565.17,34.03 C561.343333,30.7633333 556.176667,29.1266667 549.67,29.12 C545.668954,29.0522646 541.696709,29.8079101 538,31.34 C534.823085,32.6135684 532.056132,34.7337463 530,37.47 C528.162905,39.923064 527.169999,42.905291 527.17,45.97 L541.28,45.97 C541.18846,44.1820214 541.926342,42.4516893 543.28,41.28 C544.878915,40.0599125 546.862138,39.4532376 548.87,39.57 C551.57,39.57 553.546667,40.3033333 554.8,41.77 C556.118858,43.42949 556.787281,45.5129773 556.68,47.63 L556.68,50.63 L550.19,50.63 C542.343333,50.63 536.343333,52.1433333 532.19,55.17 C528.036667,58.1966667 525.973333,62.5 526,68.08 C525.906636,72.4320641 527.780199,76.594312 531.1,79.41 C534.68301,82.4745136 539.288558,84.0775299 544,83.9 C549.071145,84.0724436 553.956159,81.9799133 557.33,78.19 C557.549147,79.8352687 558.028462,81.4352368 558.75,82.93 L573,82.93 L573,82.1 C571.633333,79.5266667 570.933333,75.7333333 570.9,70.72 L570.91,47.82 Z M556.75,68 C555.853994,69.6127107 554.490922,70.9165196 552.84,71.74 C551.064133,72.6715828 549.08529,73.1491161 547.08,73.13 C545.227143,73.2284773 543.407646,72.6088455 542,71.4 C540.773551,70.2918779 540.093855,68.702266 540.14,67.05 L540.14,66.22 C540.593333,61.34 544.353333,58.9 551.42,58.9 L556.69,58.9 L556.75,68 Z" id="Shape" fill="#646462"/>
            <path d="M587.64,68.42 C585.542256,68.3524598 583.500902,69.1058591 581.95,70.52 C580.433827,71.9264312 579.605142,73.9233053 579.68,75.99 C579.60585,78.0321302 580.427754,80.0047013 581.93,81.39 C585.258175,84.1418386 590.071825,84.1418386 593.4,81.39 C594.902246,80.0047013 595.72415,78.0321302 595.65,75.99 C595.724858,73.9233053 594.896173,71.9264312 593.38,70.52 C591.813199,69.0991306 589.753815,68.3456977 587.64,68.42 L587.64,68.42 Z" id="Shape" fill="#646462"/>
            <path d="M617.16,44.09 C618.803322,42.0132564 621.24341,40.7222947 623.884851,40.5321262 C626.526291,40.3419577 629.12614,41.270073 631.05,43.09 C632.72074,44.917309 633.629467,47.3143441 633.59,49.79 L646.82,49.79 C646.753333,43.5433333 644.726667,38.5433333 640.74,34.79 C636.753333,31.0366667 631.456667,29.1566667 624.85,29.15 C617.296667,29.15 611.356667,31.5766667 607.03,36.43 C602.703333,41.2833333 600.54,47.7766667 600.54,55.91 L600.54,56.84 C600.54,65.3066667 602.72,71.94 607.08,76.74 C611.44,81.54 617.396667,83.94 624.95,83.94 C628.777319,83.9744238 632.560234,83.1185608 636,81.44 C639.218812,79.901899 641.949483,77.5034769 643.89,74.51 C645.795437,71.5813186 646.813001,68.1639684 646.82,64.67 L633.59,64.67 C633.610421,66.851404 632.68381,68.9344537 631.05,70.38 C629.276162,71.8646236 627.010906,72.6315999 624.7,72.53 C621.313333,72.53 618.79,71.34 617.13,68.96 C615.47,66.58 614.64,62.6666667 614.64,57.22 L614.64,55.75 C614.64,50.37 615.48,46.4833333 617.16,44.09 Z" id="Shape" fill="#646462"/>
            <path d="M680.74,29.12 C675.242385,29.0407663 670.023255,31.5338162 666.63,35.86 L666.63,7.93 L652.52,7.93 L652.52,82.93 L666.63,82.93 L666.63,45.38 C668.483333,42.1933333 671.483333,40.5966667 675.63,40.59 C678.656667,40.59 680.82,41.3133333 682.12,42.76 C683.42,44.2066667 684.086667,46.4433333 684.12,49.47 L684.12,82.92 L698.23,82.92 L698.23,49.09 C698.03,35.7766667 692.2,29.12 680.74,29.12 Z" id="Shape" fill="#646462"/>
            <rect id="Rectangle-path" fill="#646462" x="253.51" y="21.17" width="14.65" height="61.81"/>
            <path d="M260.84,0.3 C258.67322,0.181345948 256.548926,0.93385018 254.94,2.39 C252.020098,5.35906194 252.020098,10.1209381 254.94,13.09 C258.341904,15.8775257 263.238096,15.8775257 266.64,13.09 C269.576112,10.1275916 269.576112,5.35240838 266.64,2.39 C265.054909,0.960764397 262.972415,0.21034846 260.84,0.3 L260.84,0.3 Z" id="Shape" fill="#646462"/>
        </g>
    </g>
</svg>